<mxfile host="app.diagrams.net" modified="2023-08-25T02:00:37.334Z" agent="Mozilla/5.0 (Macintosh; Intel Mac OS X 10_15_7) AppleWebKit/537.36 (KHTML, like Gecko) Chrome/116.0.0.0 Safari/537.36" version="21.6.9" etag="T_uVoqojdFbcdxIksrBH" type="github">
  <diagram name="Page-1" id="8MWwS3MdzaC4GidmPY1Y">
    <mxGraphModel>
      <root>
        <mxCell id="0" />
        <mxCell id="1" parent="0" />
      </root>
    </mxGraphModel>
  </diagram>
</mxfile>
